<?xml version="1.0" encoding="UTF-8"?>
<svg id="Material" xmlns="http://www.w3.org/2000/svg" viewBox="0 0 308.0531 131.48299">
  <defs>
    <style>
      .cls-1 {
        fill: #fff;
      }

      .cls-2 {
        fill: #2ad4ae;
      }
    </style>
  </defs>
  <g>
    <path class="cls-1" d="M18.7465,65.17293C7.81797,65.17293,0,58.28047,0,48.10799H10.00302c0,4.95996,3.36313,7.81797,8.74348,7.81797,5.21252,0,8.40619-2.60707,8.40619-7.39757C27.15268,35.4979,.0831,44.49231,.0831,23.47603,.0831,13.72394,7.73324,7.16714,18.41084,7.16714c10.8438,0,18.57867,6.89245,18.57867,17.06493h-10.00465c0-4.95996-3.36313-7.81797-8.57402-7.81797-5.04469,0-8.40782,2.52234-8.40782,7.06191,0,11.09636,27.23904,3.53096,27.23904,25.05236,0,9.91992-7.73486,16.64454-18.49557,16.64454Z"/>
    <path class="cls-1" d="M80.42657,8.0063v9.2486h-25.55748v13.45088h25.55748v9.24697h-25.55748v15.13244h25.55748v9.24697H44.78134V8.0063h35.64523Z"/>
    <path class="cls-1" d="M107.42236,31.04143h37.71012c.16783,1.68156,.33729,3.36313,.33729,5.12779,0,17.06656-12.1066,29.00371-29.08844,29.00371-16.814,0-28.91898-11.93714-28.91898-29.00371,0-16.98183,12.10497-29.00208,28.91898-29.00208,12.6603,0,22.8459,6.84328,27.02322,17.21213l-11.09004-.02887c-3.07295-5.06992-8.71564-7.93629-15.93318-7.93629-11.43365,0-18.91433,7.81797-18.91433,19.75511,0,11.93877,7.48067,19.75674,18.91433,19.75674,10.17248,0,17.14966-6.0533,18.6634-15.63756h-27.62237v-9.24697Z"/>
    <path class="cls-1" d="M162.8475,8.0063V41.38174c0,9.16387,5.38035,14.54422,14.45949,14.54422,9.2486,0,14.46112-5.38035,14.46112-14.54422V8.0063h10.08775V42.13942c0,13.78654-10.00465,23.0335-24.54887,23.0335-14.45949,0-24.54724-9.24697-24.54724-23.0335V8.0063h10.08775Z"/>
    <path class="cls-1" d="M46.48625,82.72417c-11.43365,0-18.91433,7.81797-18.91433,19.75511,0,11.93877,7.48067,19.75674,18.91433,19.75674,9.70395,0,16.58554-5.50252,18.44757-14.44064l10.17357,.05757c-2.20289,14.19936-13.39126,23.63004-28.62114,23.63004-16.814,0-28.91898-11.93714-28.91898-29.00371,0-16.98183,12.10497-29.00208,28.91898-29.00208,14.92424,0,25.96756,9.19944,28.4777,22.81341l-10.1693,.33997c-2.06862-8.62265-8.79929-13.90642-18.3084-13.90642Z"/>
    <path class="cls-1" d="M116.13464,119.71367h-25.89314l-4.45484,10.92853h-10.7607l23.11823-56.32585h10.00465l23.20296,56.32585h-10.7607l-4.45647-10.92853Zm-3.69879-9.24697l-9.24697-22.69947-9.16387,22.69947h18.41084Z"/>
    <path class="cls-1" d="M137.04495,74.31635h23.79119c11.01326,0,18.83123,6.97881,18.83123,17.15129,0,8.91131-6.22113,15.5512-15.385,16.8971l16.22578,22.27745h-11.93714l-15.55283-22.02489h-5.88547v22.02489h-10.08775v-56.32585Zm10.08775,9.2486v15.80376h13.70344c5.46508,0,8.82658-3.11057,8.82658-7.90107,0-4.79213-3.3615-7.9027-8.82658-7.9027h-13.70344Z"/>
    <path class="cls-1" d="M250.04569,102.47928c0-16.98183,12.10497-29.00208,28.91898-29.00208,16.98183,0,29.08844,12.02024,29.08844,29.00208,0,17.06656-12.1066,29.00371-29.08844,29.00371-16.814,0-28.91898-11.93714-28.91898-29.00371Zm47.91803,0c0-11.93714-7.4823-19.75511-18.99906-19.75511-11.43365,0-18.91433,7.81797-18.91433,19.75511,0,11.93877,7.48067,19.75674,18.91433,19.75674,11.51675,0,18.99906-7.81797,18.99906-19.75674Z"/>
    <path class="cls-1" d="M205.71854,97.35149h37.71012c.16783,1.68156,.33729,3.36313,.33729,5.12779,0,17.06656-12.1066,29.00371-29.08844,29.00371-16.814,0-28.91898-11.93714-28.91898-29.00371,0-16.98183,12.10497-29.00208,28.91898-29.00208,12.6603,0,22.8459,6.84328,27.02322,17.21213l-11.09004-.02887c-3.07295-5.06992-8.71564-7.93629-15.93318-7.93629-11.43365,0-18.91433,7.81797-18.91433,19.75511,0,11.93877,7.48067,19.75674,18.91433,19.75674,10.17248,0,17.14966-6.0533,18.6634-15.63756h-27.62237v-9.24697Z"/>
  </g>
  <path class="cls-2" d="M270.59465,49.51671l-19.2238,11.0989v-22.61408l19.2238-10.78196v13.37483l8.02677-4.60319V18.05012l-15.47768-8.9361-8.05358,4.61852,11.40364,6.58406-19.13632,10.73283-19.13632-10.73283,19.13632-11.04845,8.01138-4.6427-.00615-.00374-8.00523-4.62171-31.26395,18.05012V54.15079l31.26395,18.05012,31.26395-18.05012v-9.20985l-8.02677,4.57577Zm-27.25057,11.0989l-19.2238-11.0989V27.21958l19.2238,10.78196v22.61408Z"/>
</svg>